<mxfile host="app.diagrams.net" agent="Mozilla/5.0 (Windows NT 10.0; Win64; x64) AppleWebKit/537.36 (KHTML, like Gecko) Chrome/138.0.0.0 Safari/537.36 Edg/138.0.0.0" version="28.0.7">
  <diagram name="Página-1" id="6g3_-cIrBPjoVK4HgTk-">
    <mxGraphModel dx="1418" dy="3124" grid="1" gridSize="10" guides="1" tooltips="1" connect="1" arrows="1" fold="1" page="1" pageScale="1" pageWidth="827" pageHeight="1169" math="0" shadow="0">
      <root>
        <mxCell id="0" />
        <mxCell id="1" parent="0" />
        <mxCell id="PcprcVoRBeJa5MjU6cHT-1" value="Início" style="ellipse;whiteSpace=wrap;html=1;fillColor=#dae8fc;strokeColor=#6c8ebf;" vertex="1" parent="1">
          <mxGeometry x="65" y="-2310" width="120" height="80" as="geometry" />
        </mxCell>
        <mxCell id="PcprcVoRBeJa5MjU6cHT-2" value="Pagador identifica golpe ou erro no Pix" style="rounded=0;whiteSpace=wrap;html=1;fillColor=#d5e8d4;strokeColor=#82b366;" vertex="1" parent="1">
          <mxGeometry x="40" y="-2200" width="170" height="60" as="geometry" />
        </mxCell>
        <mxCell id="PcprcVoRBeJa5MjU6cHT-3" value="Prazo de até 80 dias para solicitar a devolução" style="rhombus;whiteSpace=wrap;html=1;fillColor=#f8cecc;strokeColor=#b85450;" vertex="1" parent="1">
          <mxGeometry x="60" y="-2100" width="130" height="100" as="geometry" />
        </mxCell>
        <mxCell id="PcprcVoRBeJa5MjU6cHT-4" value="Sim" style="text;html=1;align=center;verticalAlign=middle;resizable=0;points=[];autosize=1;strokeColor=none;fillColor=none;" vertex="1" parent="1">
          <mxGeometry x="190" y="-2075" width="40" height="30" as="geometry" />
        </mxCell>
        <mxCell id="PcprcVoRBeJa5MjU6cHT-5" value="Não" style="text;html=1;align=center;verticalAlign=middle;resizable=0;points=[];autosize=1;strokeColor=none;fillColor=none;" vertex="1" parent="1">
          <mxGeometry x="120" y="-2000" width="40" height="30" as="geometry" />
        </mxCell>
        <mxCell id="PcprcVoRBeJa5MjU6cHT-6" value="Processo é iniciado" style="rounded=0;whiteSpace=wrap;html=1;fillColor=#d5e8d4;strokeColor=#82b366;" vertex="1" parent="1">
          <mxGeometry x="255" y="-2090" width="120" height="80" as="geometry" />
        </mxCell>
        <mxCell id="PcprcVoRBeJa5MjU6cHT-7" value="Fim do processo" style="ellipse;whiteSpace=wrap;html=1;fillColor=#dae8fc;strokeColor=#6c8ebf;" vertex="1" parent="1">
          <mxGeometry x="65" y="-1940" width="120" height="80" as="geometry" />
        </mxCell>
        <mxCell id="PcprcVoRBeJa5MjU6cHT-8" value="Instituição do pagador solicita bloqueio imediato do valor" style="rounded=0;whiteSpace=wrap;html=1;fillColor=#f8cecc;strokeColor=#b85450;" vertex="1" parent="1">
          <mxGeometry x="225" y="-1970" width="180" height="60" as="geometry" />
        </mxCell>
        <mxCell id="PcprcVoRBeJa5MjU6cHT-9" value="Análise do caso pela instituição do recebedor&lt;br&gt;(Prazo de até 7 dias)" style="rounded=0;whiteSpace=wrap;html=1;fillColor=#d5e8d4;strokeColor=#82b366;" vertex="1" parent="1">
          <mxGeometry x="225" y="-1880" width="180" height="60" as="geometry" />
        </mxCell>
        <mxCell id="PcprcVoRBeJa5MjU6cHT-10" value="Fraude ou erro confirmados?" style="rhombus;whiteSpace=wrap;html=1;fillColor=#f8cecc;strokeColor=#b85450;" vertex="1" parent="1">
          <mxGeometry x="245" y="-1790" width="140" height="100" as="geometry" />
        </mxCell>
        <mxCell id="PcprcVoRBeJa5MjU6cHT-11" value="Não" style="text;html=1;align=center;verticalAlign=middle;resizable=0;points=[];autosize=1;strokeColor=none;fillColor=none;" vertex="1" parent="1">
          <mxGeometry x="195" y="-1765" width="40" height="30" as="geometry" />
        </mxCell>
        <mxCell id="PcprcVoRBeJa5MjU6cHT-12" value="Sim" style="text;html=1;align=center;verticalAlign=middle;resizable=0;points=[];autosize=1;strokeColor=none;fillColor=none;" vertex="1" parent="1">
          <mxGeometry x="385" y="-1765" width="40" height="30" as="geometry" />
        </mxCell>
        <mxCell id="PcprcVoRBeJa5MjU6cHT-13" value="Valor é devolvido&lt;br&gt;total ou parcialmente&lt;br&gt;(Prazo de até 96 horas)" style="rounded=0;whiteSpace=wrap;html=1;fillColor=#d5e8d4;strokeColor=#82b366;" vertex="1" parent="1">
          <mxGeometry x="435" y="-1780" width="130" height="80" as="geometry" />
        </mxCell>
        <mxCell id="PcprcVoRBeJa5MjU6cHT-14" value="Fim do processo" style="ellipse;whiteSpace=wrap;html=1;fillColor=#dae8fc;strokeColor=#6c8ebf;" vertex="1" parent="1">
          <mxGeometry x="255" y="-1660" width="120" height="80" as="geometry" />
        </mxCell>
        <mxCell id="PcprcVoRBeJa5MjU6cHT-15" value="Fim do processo" style="ellipse;whiteSpace=wrap;html=1;fillColor=#dae8fc;strokeColor=#6c8ebf;" vertex="1" parent="1">
          <mxGeometry x="435" y="-1660" width="120" height="80" as="geometry" />
        </mxCell>
        <mxCell id="PcprcVoRBeJa5MjU6cHT-16" value="" style="endArrow=classic;html=1;rounded=0;entryDx=0;entryDy=0;" edge="1" parent="1" target="PcprcVoRBeJa5MjU6cHT-2">
          <mxGeometry width="50" height="50" relative="1" as="geometry">
            <mxPoint x="125" y="-2230" as="sourcePoint" />
            <mxPoint x="125" y="-2200" as="targetPoint" />
          </mxGeometry>
        </mxCell>
        <mxCell id="PcprcVoRBeJa5MjU6cHT-17" value="" style="endArrow=classic;html=1;rounded=0;" edge="1" parent="1">
          <mxGeometry width="50" height="50" relative="1" as="geometry">
            <mxPoint x="125" y="-2140" as="sourcePoint" />
            <mxPoint x="125" y="-2100" as="targetPoint" />
          </mxGeometry>
        </mxCell>
        <mxCell id="PcprcVoRBeJa5MjU6cHT-18" value="" style="endArrow=classic;html=1;rounded=0;entryDx=0;entryDy=0;" edge="1" parent="1" target="PcprcVoRBeJa5MjU6cHT-6">
          <mxGeometry width="50" height="50" relative="1" as="geometry">
            <mxPoint x="190" y="-2050" as="sourcePoint" />
            <mxPoint x="240" y="-2050" as="targetPoint" />
          </mxGeometry>
        </mxCell>
        <mxCell id="PcprcVoRBeJa5MjU6cHT-19" value="" style="endArrow=classic;html=1;rounded=0;entryDx=0;entryDy=0;" edge="1" parent="1" target="PcprcVoRBeJa5MjU6cHT-7">
          <mxGeometry width="50" height="50" relative="1" as="geometry">
            <mxPoint x="125" y="-2000" as="sourcePoint" />
            <mxPoint x="125" y="-1940" as="targetPoint" />
          </mxGeometry>
        </mxCell>
        <mxCell id="PcprcVoRBeJa5MjU6cHT-20" value="" style="endArrow=classic;html=1;rounded=0;entryDx=0;entryDy=0;" edge="1" parent="1">
          <mxGeometry width="50" height="50" relative="1" as="geometry">
            <mxPoint x="315" y="-2010" as="sourcePoint" />
            <mxPoint x="315" y="-1970" as="targetPoint" />
          </mxGeometry>
        </mxCell>
        <mxCell id="PcprcVoRBeJa5MjU6cHT-21" value="" style="endArrow=classic;html=1;rounded=0;entryDx=0;entryDy=0;" edge="1" parent="1">
          <mxGeometry width="50" height="50" relative="1" as="geometry">
            <mxPoint x="315" y="-1910" as="sourcePoint" />
            <mxPoint x="315" y="-1880" as="targetPoint" />
          </mxGeometry>
        </mxCell>
        <mxCell id="PcprcVoRBeJa5MjU6cHT-22" value="" style="endArrow=classic;html=1;rounded=0;entryDx=0;entryDy=0;" edge="1" parent="1">
          <mxGeometry width="50" height="50" relative="1" as="geometry">
            <mxPoint x="315" y="-1820" as="sourcePoint" />
            <mxPoint x="315" y="-1790" as="targetPoint" />
          </mxGeometry>
        </mxCell>
        <mxCell id="PcprcVoRBeJa5MjU6cHT-23" value="" style="endArrow=classic;html=1;rounded=0;" edge="1" parent="1">
          <mxGeometry width="50" height="50" relative="1" as="geometry">
            <mxPoint x="245" y="-1740" as="sourcePoint" />
            <mxPoint x="125" y="-1740" as="targetPoint" />
            <Array as="points">
              <mxPoint x="125" y="-1740" />
              <mxPoint x="125" y="-1860" />
            </Array>
          </mxGeometry>
        </mxCell>
        <mxCell id="PcprcVoRBeJa5MjU6cHT-24" value="" style="endArrow=classic;html=1;rounded=0;" edge="1" parent="1">
          <mxGeometry width="50" height="50" relative="1" as="geometry">
            <mxPoint x="315" y="-1690" as="sourcePoint" />
            <mxPoint x="315" y="-1660" as="targetPoint" />
          </mxGeometry>
        </mxCell>
        <mxCell id="PcprcVoRBeJa5MjU6cHT-25" value="" style="endArrow=classic;html=1;rounded=0;entryDx=0;entryDy=0;" edge="1" parent="1" target="PcprcVoRBeJa5MjU6cHT-13">
          <mxGeometry width="50" height="50" relative="1" as="geometry">
            <mxPoint x="385" y="-1740" as="sourcePoint" />
            <mxPoint x="435" y="-1740" as="targetPoint" />
          </mxGeometry>
        </mxCell>
        <mxCell id="PcprcVoRBeJa5MjU6cHT-26" value="" style="endArrow=classic;html=1;rounded=0;entryDx=0;entryDy=0;" edge="1" parent="1">
          <mxGeometry width="50" height="50" relative="1" as="geometry">
            <mxPoint x="495" y="-1700" as="sourcePoint" />
            <mxPoint x="495" y="-1660" as="targetPoint" />
          </mxGeometry>
        </mxCell>
      </root>
    </mxGraphModel>
  </diagram>
</mxfile>
